<svg viewBox="-58 0 489 489.232" xmlns="http://www.w3.org/2000/svg"><path d="M365.492 321.8a162.07 162.07 0 00-82.976-9.968v-17.207l-10.2 2.91c-33.601 9.602-61.886 33.176-77.8 64.024v-74.72c0-16.374 7.336-31.632 20.12-41.862 9.473-7.579 21.368-11.747 33.497-11.747h2.383c14.863 0 27.289-10.238 30.863-24h.496c15.688 0 31.379 1.93 46.61 5.739l18.03 4.511v-10.25c0-22.78-11.406-43.293-29.769-55.558 1.754-1.375 3.457-2.817 5.043-4.399 10.781-10.785 16.727-25.128 16.727-40.378 0-13.91-2.23-27.657-6.633-40.84l-5.094-15.285-12.746 8.496c-9.598 6.39-20.504 10.183-31.863 11.406.12-1.313.336-2.602.336-3.938v-9.238c0-13.496-4.465-26.871-12.559-37.672C260.293 8.93 244.891 1.23 228.781 1.23a51.737 51.737 0 00-23.015 5.434l-3.25 1.625L185.94 0l-10.53 7.016c-15.477 10.312-35.345 12.968-52.958 7.09L102.461 7.44 82.277 47.8c-3.379 6.758-5.593 14.07-6.761 21.535-5.817-1.984-11.368-4.64-16.536-8.09l-12.746-8.492-5.093 15.285a129.034 129.034 0 00-6.625 40.856c0 15.257 5.945 29.593 16.726 40.378 1.586 1.582 3.29 3.024 5.043 4.399-18.36 12.273-29.77 32.777-29.77 55.558v10.25l18.032-4.503a192.008 192.008 0 0146.61-5.747h11.6c.848 1.754 1.79 3.473 2.888 5.114a42.331 42.331 0 0035.296 18.886c15.192 0 28.856 8.442 35.649 22.036l1.926 3.855v54.438c-15.918-30.848-44.207-54.422-77.801-64.024l-10.2-2.91v17.207A162.08 162.08 0 007.539 273.8l-7.422 2.976 5.68 14.207a101.978 101.978 0 0039.648 48l-15.832 15.832 18.504 11.106a135.525 135.525 0 0069.711 19.308c14.582 0 29-2.335 42.84-6.949l17.848-5.953V489.23h16v-68.902l17.84 5.945a135.115 135.115 0 0042.847 6.957c24.543 0 48.656-6.671 69.711-19.308l18.508-11.106-15.832-15.832a102.057 102.057 0 0039.644-48.007l5.68-14.207zm-36.047-123.066a208.432 208.432 0 00-47.57-5.504h-.496c-1.942-7.468-6.438-13.894-12.59-18.207 8.297-4.757 17.152-8.398 26.473-10.734 1.703-.426 3.336-1.031 4.98-1.61 15.188 6.778 25.914 20.169 29.203 36.055zM192.79 122.266a86.778 86.778 0 0138.566-9.036h6.665c3.632 0 7.257-.445 10.792-1.328 3.032-.757 5.864-1.902 8.59-3.222a160.281 160.281 0 01-19.597 60.55h-7.45zm-38.273-22.227v5.191h-1.91a33.184 33.184 0 01-27.68-14.816 14.28 14.28 0 01-2.403-7.941c0-3.825 1.489-7.418 4.192-10.121l3.144-3.145zm-16 19.059c4.52 1.351 9.242 2.132 14.09 2.132h1.91v15.036c0 5.886 1.09 11.597 3.062 16.964h-19.062zm16.03-44.633c.032-3.395.345-6.754.833-10.074 17.008 15.898 37.351 27.53 59.402 34.21a102.57 102.57 0 00-32.176 10.926zm33.696-5.113l3.922-11.758c14.367 1.832 26.895 10.62 33.504 23.84l2.062 4.125a135.228 135.228 0 01-39.488-16.207zm-17.726 50.687l39.351 49.191h-6.383c-8.808 0-17.09-3.43-23.312-9.656-6.223-6.222-9.656-14.512-9.656-23.308zm147.578-42.473a113.035 113.035 0 014.422 31.329c0 10.984-4.282 21.304-12.04 29.066a41.204 41.204 0 01-19.097 10.809c-11.336 2.84-22.063 7.367-32.063 13.3 9.473-21.36 14.598-44.43 15.079-67.902 1.152-1.648 2.234-3.344 3.152-5.137 14.305-.496 28.183-4.32 40.547-11.465zm-133.801-57.23l2.8-1.871 15.423 7.71 10.398-5.198a35.667 35.667 0 0115.867-3.747c11.11 0 21.719 5.305 28.383 14.196 6.024 8.039 9.352 18.015 9.352 28.07v9.246c0 7.945-3.305 15.227-8.711 20.457-3.57-.015-7.114-.262-10.649-.566L239.98 74.28c-10.19-20.386-30.68-33.05-53.464-33.05h-5.77l-6.176 18.523c-5.039-4-9.824-8.348-14.285-13.082a73.595 73.595 0 0112.63-20.238c3.937-1.747 7.769-3.7 11.378-6.098zM96.598 54.969l13.972-27.953 6.825 2.273c10.296 3.43 21.203 4.453 31.882 3.39a89.494 89.494 0 00-8.816 24.176l-9.281-11.597-15.785 15.781c-5.727 5.73-8.88 13.336-8.88 21.434 0 6 1.762 11.824 5.09 16.816 3.016 4.52 6.743 8.367 10.91 11.59v21.41l-.175-.09c-19.633-9.816-31.824-29.543-31.824-51.488a57.85 57.85 0 016.082-25.742zm-46.082 53.926c0-10.622 1.488-21.141 4.425-31.32a86.74 86.74 0 0019.942 8.378c1.824 25.902 16.808 48.809 40.305 60.559l7.328 3.664v5.687c-3.543 1.383-6.758 3.336-9.696 5.672-9.754-5.68-20.183-10.023-31.175-12.765a41.224 41.224 0 01-19.098-10.81c-7.75-7.769-12.031-18.089-12.031-29.065zm40.64 84.335c-16 0-31.992 1.848-47.566 5.504 3.285-15.894 14.015-29.285 29.191-36.062 1.649.574 3.285 1.183 4.992 1.617 8.704 2.176 17.032 5.48 24.856 9.781-2.543 5.067-4.113 10.7-4.113 16.739 0 .816.129 1.617.175 2.421zm49.785 24a26.366 26.366 0 01-21.984-11.765 26.317 26.317 0 01-4.441-14.656c0-11.899 9.68-21.579 21.578-21.579h31.261c.504.555.97 1.13 1.504 1.657 9.25 9.25 21.543 14.343 34.625 14.343h47.032c8.824 0 16 7.176 16 16s-7.176 16-16 16h-2.383c-15.754 0-31.192 5.418-43.488 15.258-5.497 4.399-10.137 9.567-13.993 15.207-9.593-18.793-28.578-30.465-49.71-30.465zm14.672 145.868c-32.746 10.925-69.648 6.863-99.258-10.899l-.933-.558 16.598-16.61-9.926-4.969a86.04 86.04 0 01-41.098-44.183 145.792 145.792 0 0170.695-5.688l14.825 2.489v-14.282c28.082 11.137 50.914 33.657 62.199 61.883l4.05 10.125-2.433-1.894A242.537 242.537 0 0051.5 289.297l-1.984 15.871a226.633 226.633 0 01110.992 45.977l9.289 7.222zm155.328 14.972l-9.93 4.97 16.602 16.608-.93.559c-29.609 17.762-66.495 21.824-99.261 10.898l-14.195-4.73 9.289-7.223a226.633 226.633 0 01110.992-45.976l-1.985-15.871a242.67 242.67 0 00-118.832 49.215l-2.43 1.886 4.055-10.125c11.29-28.234 34.122-50.746 62.2-61.883v14.282l14.824-2.473c23.719-3.95 48-1.984 70.695 5.688a86.048 86.048 0 01-41.094 44.175zm0 0"/></svg>