<svg xmlns="http://www.w3.org/2000/svg" viewBox="0 0 480 480"><path d="M240 0a8 8 0 00-8 8v48a8 8 0 0016 0V8a8 8 0 00-8-8zm-31.016 18.016l-1.392-7.88a8.001 8.001 0 10-15.76 2.776l1.392 7.88a8 8 0 009.264 6.488h.001a8 8 0 006.495-9.264zm-45.6 19.496zm7.52-10.736l-2.736-7.52a8 8 0 00-10.451-4.873 8 8 0 00-4.581 10.345l2.728 7.512a8 8 0 0010.258 4.79 8 8 0 004.782-10.254zm-68.776 36.488l-5.144-6.128a8 8 0 00-11.032-.967 8 8 0 00-1.224 11.247l5.144 6.128A8 8 0 0096 76.408a8 8 0 006.128-13.144zM73.544 89.872l-6.128-5.144a8 8 0 00-10.28 12.256l6.128 5.144A8 8 0 0068.4 104a8 8 0 005.144-14.128zM32.24 155.864l-7.512-2.728a8 8 0 00-10.451 4.873 8 8 0 004.979 10.159l7.52 2.736a8 8 0 105.464-15.04zm-11.448 37.36l-7.88-1.392a8.001 8.001 0 10-2.776 15.76l7.88 1.392c.46.079.925.119 1.392.12a8 8 0 001.384-15.88zm6.492 84.284a8.001 8.001 0 00-9.268-6.492l-7.88 1.392a8.001 8.001 0 001.376 15.88 8.419 8.419 0 001.4-.12l7.88-1.392a8.001 8.001 0 006.492-9.268zm9.744 36.376a8.001 8.001 0 00-10.252-4.788l-7.52 2.736a8.001 8.001 0 002.736 15.52 8.01 8.01 0 002.736-.488l7.512-2.728a8.001 8.001 0 004.788-10.252zm37.525 64.724a8 8 0 00-11.289-.753L57.136 383a8.001 8.001 0 005.144 14.128 8 8 0 005.136-1.872l6.128-5.144a8 8 0 001.009-11.504zm26.582 26.624a8 8 0 00-11.247 1.224l-5.144 6.128a8 8 0 006.128 13.136A8 8 0 0097 422.864l5.144-6.128a8 8 0 00-1.009-11.504zm64.981 37.74a8.001 8.001 0 00-10.252 4.788l-2.728 7.512a8 8 0 007.52 10.736 8 8 0 007.512-5.264l2.736-7.52a8.001 8.001 0 00-4.788-10.252zm36.376 9.744a8.001 8.001 0 00-9.268 6.492l-1.392 7.88v.001a8 8 0 006.496 9.263c.459.086.925.128 1.392.128a8 8 0 007.872-6.616l1.392-7.88a8.001 8.001 0 00-6.492-9.268zm85.676 14.372l-1.392-7.88a8.001 8.001 0 10-15.76 2.776l1.392 7.88a8 8 0 007.872 6.616c.467 0 .933-.042 1.392-.128h.001a8 8 0 006.495-9.264zm38.696-11.816l-2.728-7.512a8.001 8.001 0 00-15.04 5.464l2.736 7.52a8 8 0 007.512 5.264 8 8 0 007.52-10.736zm68.392-42.688l-5.144-6.128a8 8 0 10-12.256 10.28l5.144 6.128a7.944 7.944 0 006.128 2.856 8 8 0 006.128-13.136zM422.864 383l-6.128-5.144a8 8 0 00-11.503 1.009 8 8 0 001.224 11.247l6.128 5.144a8 8 0 005.136 1.872A8 8 0 00422.864 383zm37.88-71.168l-7.52-2.736a8.001 8.001 0 00-5.464 15.04l7.512 2.728a8.006 8.006 0 002.736.488 8 8 0 002.736-15.52zm9.12-39.424l-7.88-1.392a8.001 8.001 0 10-2.776 15.76l7.88 1.392c.462.079.931.119 1.4.12a8.001 8.001 0 001.376-15.88zm6.492-74.084a8.001 8.001 0 00-9.268-6.492l-7.88 1.392a8 8 0 001.384 15.88 8.323 8.323 0 001.392-.12l7.88-1.392a8.001 8.001 0 006.492-9.268zm-10.739-40.607a8 8 0 00-10.345-4.581l-7.512 2.728a8 8 0 105.464 15.04l7.52-2.736a8.001 8.001 0 004.873-10.451zm-41.786-71.765a8 8 0 00-11.247-1.224l-6.128 5.144A8.001 8.001 0 00411.6 104a8 8 0 005.136-1.872l6.128-5.144a8 8 0 00.967-11.032zm-29.526-29.568a8 8 0 00-11.289.752l-5.144 6.128A8 8 0 00384 76.408a8 8 0 006.128-2.864l5.144-6.128a8 8 0 00-.967-11.032zm-72.313-42.106a7.999 7.999 0 00-10.159 4.978l-2.736 7.52a8 8 0 1015.04 5.464l2.728-7.512a8 8 0 00-4.873-10.45zM281.676 3.644a8.001 8.001 0 00-9.268 6.492l-1.392 7.88v.001a8 8 0 007.888 9.383 8 8 0 007.872-6.608l1.392-7.88a8.001 8.001 0 00-6.492-9.268zM146.92 62.792l-16-27.712a8 8 0 00-13.856 8l16 27.712a7.998 7.998 0 0010.928 2.928 8 8 0 002.928-10.928zm-76.136 70.28l-27.712-16a8 8 0 00-8 13.856l27.712 16A8.002 8.002 0 0073.712 144a8 8 0 00-2.928-10.928zm2.964 202.854a8 8 0 00-10.948-2.854l-27.712 16a8 8 0 008 13.856l27.712-16 .093-.054a8 8 0 002.855-10.948zm70.241 70.282a8 8 0 00-10.909 3l-16 27.712a8 8 0 1013.856 8l16-27.712.053-.092a8 8 0 00-3-10.908zM362.92 436.92l-16-27.712a8 8 0 00-13.856 8l16 27.712a7.998 7.998 0 0010.928 2.928 8 8 0 002.928-10.928zm81.992-87.848l-27.712-16a8 8 0 00-8 13.856l27.712 16a8 8 0 008-13.856zm2.925-229a8 8 0 00-10.909-3l-27.712 16a8 8 0 008 13.856l27.712-16a8 8 0 002.909-10.856zm-87.809-87.846a8 8 0 00-10.948 2.854l-16 27.712a8 8 0 1013.856 8l16-27.712a7.999 7.999 0 00-2.908-10.854zM56 232H8a8 8 0 000 16h48a8 8 0 000-16zm184 184a8 8 0 00-8 8v48a8 8 0 0016 0v-48a8 8 0 00-8-8zm232-184h-56a8 8 0 000 16h56a8 8 0 000-16zM353.832 126.568a8 8 0 00-11.312 0l-86.28 86.28a31.454 31.454 0 00-16-4.152 31.815 31.815 0 00-15.032 4.176l-41.048-41.048a8.016 8.016 0 10-11.36 11.312l40.72 40.72c-9.41 14.991-4.885 34.772 10.106 44.182 14.991 9.41 34.772 4.885 44.182-10.107a32.046 32.046 0 000-34.075l86.024-85.976a8 8 0 000-11.312zM252.683 251.821c-6.02 6.468-16.145 6.831-22.613.811a16.85 16.85 0 01-.47-.456c-6.341-6.154-6.493-16.284-.339-22.625a16 16 0 0111.227-4.855 15.505 15.505 0 0111.384 4.512c6.468 6.02 6.831 16.145.811 22.613z"/></svg>