<svg viewBox="0 0 512 512" xmlns="http://www.w3.org/2000/svg"><path d="M495.531 163.527C511.812 82.13 512 17.703 512 15c0-3.977-1.578-7.793-4.395-10.605A14.996 14.996 0 00497 0c-2.703 0-67.129.188-148.527 16.469-29 5.797-56.477 12.937-82.196 21.312-.175.051-.343.11-.515.168-16.649 5.438-32.563 11.395-47.645 17.856-18.445 7.906-35.687 16.582-51.672 25.984-.484.258-.957.54-1.41.848-25.644 15.222-48.031 32.328-66.867 51.164-37.402 37.402-58 87.125-58 140.015 0 47.86 16.867 93.125 47.785 129.016L4.395 486.395c-5.86 5.859-5.86 15.355 0 21.21C7.325 510.535 11.16 512 15 512s7.68-1.465 10.605-4.395l83.563-83.558c35.887 30.914 81.152 47.781 129.012 47.781 52.894 0 102.617-20.594 140.02-57.992 18.84-18.84 35.94-41.23 51.163-66.875.309-.453.59-.926.848-1.41 9.402-15.989 18.078-33.227 25.98-51.668 6.473-15.102 12.434-31.031 17.88-47.7.046-.14.093-.285.136-.425 8.379-25.73 15.523-53.219 21.324-82.23zM353.777 46c55.735-11.188 104.13-14.555 127.79-15.566-1.012 23.664-4.38 72.058-15.567 127.789-4.203 20.937-9.809 44.203-17.219 68.242l-142.039.004L394 139.215c5.855-5.86 5.855-15.36 0-21.215-5.86-5.86-15.355-5.86-21.215 0l-87.25 87.254V63.219c24.04-7.41 47.305-13.016 68.242-17.219zm54.403 277.523H209.687l67.055-67.054 161.926-.004c-8.332 22.644-18.375 45.41-30.488 67.058zM255.535 73.332V235.25l-67.058 67.055-.004-198.485c21.652-12.113 44.414-22.156 67.062-30.488zM70.168 273.816c0-44.875 17.477-87.066 49.21-118.8 11.958-11.957 25.126-22.746 39.095-32.48l.007 209.769-49.234 49.238c-25.297-30.168-39.078-67.887-39.078-107.727zm286.82 118.809c-31.734 31.73-73.93 49.203-118.808 49.203-39.836 0-77.555-13.781-107.723-39.074l49.23-49.23H389.47c-9.735 13.972-20.524 27.14-32.48 39.101zm0 0"/></svg>