<svg width="24" height="24" viewBox="0 0 512 512" xmlns="http://www.w3.org/2000/svg"><path d="M256 0C114.637 0 0 114.637 0 256s114.637 256 256 256 256-114.637 256-256S397.363 0 256 0zm33.027 400.566c-62.996 1.086-86.859-44.875-86.859-77.226v-94.48h-29.27v-37.352c43.875-15.82 54.422-55.39 56.899-77.934.172-1.55 1.39-2.16 2.086-2.16h42.347v73.664h57.875v43.785h-58.074v90.02c.188 12.238 4.68 29.12 27.832 28.5 7.668-.192 17.95-2.422 23.328-4.988l13.907 41.23c-5.211 7.684-28.817 16.578-50.07 16.941zm0 0"/></svg>