<svg version="1.0" xmlns="http://www.w3.org/2000/svg" width="933.333" height="933.333" viewBox="0 0 700 700"><path d="M345 1.2c-1.3.7-3.4 2.7-4.5 4.5-2.1 3-2.1 4-2 39.4.1 20 .2 37.5.3 38.9.7 9.2 15.5 12.2 20.9 4.1 1.7-2.4 1.8-5.7 1.8-41.8V7l-3.1-3.1C354.8.4 348.9-.8 345 1.2zm-58.5 5.1c-6 2.8-7.7 7.9-5.9 17.7 1.7 8.7 2.8 11.5 5.6 13.4 6 4.3 14.3 2.3 17.4-4.2 1.6-3.3 1.6-4.1 0-12.6-1.3-7.3-2.1-9.6-4.4-11.9-3.3-3.3-8.5-4.3-12.7-2.4zM405 5.7c-2.8 1-6.9 5.5-7.5 8.2-2.6 12.1-2.8 15.7-1 19.4 3.3 7.1 12.8 8.5 18.5 2.8 2.1-2.1 3-4.4 4-10.1.7-4.1 1.2-8.8 1.1-10.3-.4-7-8.5-12.4-15.1-10zM229.3 21.4c-3.7 1.7-6 4.9-6.6 9.1-.5 4 4.4 17.3 7.6 20.6 6.3 6.5 17.3 3.1 19.2-5.9.9-4.4-3.8-18.2-7.4-21.6-3.3-3.1-8.6-4-12.8-2.2zm232.2-.4c-3.5 1.4-6.1 5.3-9 13.2-3.1 8.7-2.9 13.1.8 16.6 6.6 6.2 15.4 4.6 19.1-3.6 3.3-7.4 5.4-14.6 5-17-.6-3.1-3.2-7-5.6-8.3-2.6-1.4-7.9-1.9-10.3-.9zM176.3 46.5c-4.3 1.8-7.2 6.7-6.8 11.2.2 2.2 4.3 10.4 11.1 22.2 5.9 10.2 11.3 19.7 12.1 21.2 4.9 9.8 17.5 10.4 21.9 1.1 2.2-4.7 1.4-7.7-5.4-19.6C189.2 48 189.4 48.3 187 47c-3.2-1.7-7.5-1.9-10.7-.5zm337.3.4c-2.1 1.2-6.5 7.8-16 24.1-13.7 23.6-14.8 26.5-11.7 32.2 3.2 6.1 12.9 7.5 17.7 2.6 3.3-3.4 26.3-43.7 27-47.4 1.6-8.7-9.1-15.9-17-11.5zM129.4 79.7c-1.2.2-3.4 1.8-5 3.4-2.4 2.5-2.9 3.9-2.9 7.8 0 4.1.6 5.5 4 9.7 8.6 10.6 10.7 11.8 18.2 10 6-1.4 9.6-10 6.7-15.7-1.7-3.3-7.8-10.6-10.9-13.1-2.5-1.9-6.3-2.7-10.1-2.1zm433.1.7c-2.9 1.6-8.4 7.5-11.5 12.4-4.8 7.3-2 16 5.7 17.8 7 1.7 9.2.5 17.9-10.1 4-4.9 5.3-10.5 3.2-14.4-2.9-5.4-10.6-8.3-15.3-5.7zM85.3 122.6c-3.3 1.7-6.5 7.5-5.8 11 .2 1 .4 2.4.4 3 .3 3.2 13.6 13.9 18.5 14.8 5.7 1 12.1-3.9 12.6-9.5.6-6.5-1.2-9.3-10.8-16.8-5.9-4.5-9.5-5.1-14.9-2.5zm518.1-.1c-1.6.9-5.6 4-8.7 7-5.4 5.2-5.7 5.7-5.7 10.4 0 4.2.5 5.4 3.1 8 1.7 1.7 3.6 3.1 4.2 3.2.7 0 2.4.2 3.9.4 5 .7 19-10.7 20.1-16.3 1.9-9.6-8.1-17.2-16.9-12.7zM52 170.7c-2.1 1.1-4.2 3.3-5.3 5.6-1.7 3.3-1.7 4.2-.5 8 1.2 3.9 2.1 4.7 13.3 11.4 6.6 4 13.1 7.8 14.5 8.5 1.4.7 6.2 3.4 10.7 6.1 9.8 5.7 12.9 6.5 17.5 4.3 7-3.3 8.9-13 3.6-18.2-1.9-1.9-20.6-13.1-36.8-22.2-2.5-1.3-4.9-2.8-5.5-3.2-2.4-1.9-8.1-2-11.5-.3zm587.8-1c-3 .8-43.2 24.3-45.6 26.7-3.2 3.2-4 9.5-1.6 13.5 2.2 3.8 6.9 6.1 11.3 5.6 1.7-.2 13.2-6.2 25.3-13.2 23.6-13.6 25.7-15.5 25.2-22.1-.3-4.5-2.9-8.1-6.9-9.8-3.5-1.4-4.6-1.5-7.7-.7zm-135.6 12c-1.4.3-27.5 25.6-66.3 64.5-49.6 49.5-64.4 63.8-65.7 63.2-13.6-5.8-27.2-6.3-38.6-1.5-2.6 1.2-4.9 2.1-5.2 2.1-.2 0-14.3-13.9-31.4-31-25.9-25.9-31.5-31-34.5-31.6-9.8-1.8-17.3 9.1-11.9 17.4 1 1.5 14.9 15.9 31.1 32 16.1 16.1 29.3 29.5 29.3 29.8 0 .3-.9 2.3-2 4.4-12 23.6.2 54.5 25.3 63.8 17.7 6.6 38 1.9 50.8-11.9 12.8-13.7 16-33.4 8.2-51.1l-2.5-5.7 62.4-62.3c34.4-34.3 63.3-63.6 64.3-65.1 3.5-5.4 1.3-13.2-4.6-16.3-2.8-1.4-4.3-1.5-8.7-.7zM355.8 328.4c5 .7 11.3 4.8 14.7 9.8 10.5 15.5-.2 35.9-18.9 36.1-22.3.1-32-27.1-14.8-41.7 2.4-2.1 11.9-5.6 13.6-5.1.6.2 3.1.6 5.4.9zM29.5 222.8c-9.4 2.1-12.2 13.9-4.8 20.4 3.2 2.8 16.9 7.1 20.6 6.4 6.9-1.3 11.1-9.4 8.3-16.1-1.6-3.7-4.1-5.4-12.4-8.4-7.2-2.6-9-2.9-11.7-2.3zm636.5.2c-7.6 1.6-16.3 5.6-18.2 8.3-3.6 5-3.1 10.4 1.5 15.4 3.2 3.6 6.9 3.8 16.3.8 11.9-3.8 16-9.1 13.3-17.2-1.7-5.2-7.6-8.5-12.9-7.3zM14.2 280.1c-4.2.9-6.8 3.3-8.2 7.5-2.5 7.3 1.7 13.5 10.2 15.4 10.4 2.2 13.4 2.3 17.1.5 3.7-1.7 6.7-6.5 6.7-10.7 0-3.1-3.5-8.6-6.2-9.8-4.1-1.8-16.2-3.6-19.6-2.9zm668.6-.6c-.2.2-2.7.7-5.7 1-8.4 1-12.3 2.7-14.8 6.4-2.7 4-2.9 7.1-.7 11.6 1.6 3.4 6.5 6.5 10.2 6.5 1.2 0 5.4-.7 9.4-1.5 8-1.7 12.3-4.8 13.3-9.6.8-3.5-.9-9-3.4-11.3-1.8-1.6-7.6-3.8-8.3-3.1zM5.7 340.4c-6.6 4.5-7.4 12.4-1.8 18l3.1 3.1 36.3.2c19.9.1 37.8 0 39.8-.3 5.1-.7 9-4.4 9.6-9.3.7-5-1-9.4-4.6-11.8-2.4-1.7-5.8-1.8-40.9-1.9-37.6-.1-38.4-.1-41.5 2zm597.7-1.6c-1.2.1-3.4 1.7-5 3.3-2.4 2.5-2.9 3.9-2.9 7.7 0 6 2.6 9.7 8 11.1 2.5.6 19.9.9 46.7.8l42.8-.2 3.2-3.3c2.8-2.8 3.3-3.9 3.3-8.1 0-5.7-2.7-9.4-7.9-11-2.8-.9-83.1-1.2-88.2-.3zM24.9 395.4c-.2.2-2.5.7-5.1 1-6.4.9-7.8 1.4-11 4.4-3.5 3.2-4.4 7.8-2.5 12.5 3.1 7.2 7.8 8.2 23.2 5.1 14.5-3 12.9-23.4-1.9-23.4-1.2 0-2.5.2-2.7.4zm641 1.3c-3.4 2.1-5.9 6.3-5.9 10 0 3.3 3.1 8.7 5.7 10.2 2.5 1.3 14 3.4 18.2 3.2 8.2-.2 12.6-7.8 9.6-16.6-1.1-3.4-5.1-5.5-13.1-7-9.5-1.9-11.3-1.8-14.5.2zM33.5 452.6c-3.8 1.4-8 3.5-9.2 4.6-2.2 2.1-4.1 6.3-3.7 8.5.1.7.2 2.1.3 3.2 0 1 1.5 3.3 3.3 5 2.5 2.4 4 3.1 7.3 3.1 5.6 0 17.8-4.9 20.4-8.1 2.7-3.5 3.5-8.3 1.7-11.7-3.7-7.2-9.5-8.5-20.1-4.6zm618.5-1.3c-3.9 2-7 7.4-6.5 11.3.8 6.4 3.1 8.5 13.5 12.4 8.2 3 13.2 2.7 16.9-1.1 2.9-2.9 3.4-3.8 3.4-7.4 0-4.4-.5-5.7-3-8.4-1.7-1.8-5.6-3.9-10.1-5.5-8.2-2.9-10.6-3.1-14.2-1.3zM93.3 485.1c-5.6 2.1-44.6 25.4-45.9 27.4-3.6 5.4-1.8 13.1 3.8 16.5 4.6 2.8 6.7 2.5 15-1.9 13.5-7.1 37.3-21.2 39.6-23.5 4.6-4.5 3.8-13.7-1.5-17.2-3-1.9-7.9-2.5-11-1.3zm503.9.6c-6.2 3-8.1 12.2-3.4 17.2 3.2 3.6 43.4 26.9 47.4 27.6 8.4 1.5 15.5-7.4 12.6-15.8-1.2-3.4-4.3-5.5-28.1-19.1-19.6-11.3-23.1-12.5-28.5-9.9zM92.9 550.9c-4.8 3.3-12.8 10.5-13 11.8-1.1 7.8.3 11.8 5.1 14.7 5.3 3 9.2 2.1 16.8-3.9 7.7-6.2 9.6-9 9.5-14.1-.1-4.5-2.7-8.2-6.8-10-4.9-2-6.6-1.8-11.6 1.5zm501.4-.9c-4.5 2.7-6 6.3-5.4 13.1.1 2.1 5.2 7.4 11.5 12.2 6.8 5.2 13 5 17.8-.6 2.1-2.3 3.3-7.7 2.4-10.5-.8-2.4-4.5-6.4-10.7-11.4-5.6-4.6-11-5.6-15.6-2.8zm-458.8 39.6c-1.7.8-3.5 2.2-4.2 3.1-.7.8-2.6 3.1-4.4 5-6 6.6-7.3 11.7-4.4 17.2 1.9 3.7 7.7 6.5 12 5.7 4.2-.8 11.2-7.5 15.7-15.1 5.4-9.3-5.2-20.8-14.7-15.9zm419.8-.1c-3.5 1.5-7.3 6.7-7.3 9.9 0 6.2 11.4 20 17.4 21.1 4.4.9 10.2-1.8 12.1-5.6 2.8-5.3 2-9.2-3.5-16.1-2.8-3.5-6.1-7-7.3-7.9-3.3-2.5-7.8-3-11.4-1.4zm-355.8 2.4c-3.2 1.4-4.7 3.5-16.9 24.6-13.8 23.7-14.6 25.8-12 31.2 2.7 5.4 7.8 7.8 13.4 6.3 4.7-1.3 5-1.7 21.1-29.5 10.9-19.1 12-22.3 8.9-28-2.5-4.7-9.1-6.7-14.5-4.6zm290.8.7c-3.8 1.9-6.4 6.8-5.8 11.3.2 1.8 2.3 6.5 4.6 10.4 10.6 18.3 13.9 24 13.9 24.2 0 .2 1.7 3.2 3.8 6.6 5 8.4 9.6 10.9 15.5 8.8 5.4-1.9 8.2-5.9 8.1-11.2-.1-3.3-1.8-7-7.5-16.7-4-6.9-9.6-16.6-12.5-21.5-2.9-5-6.2-9.9-7.3-10.9-2.8-2.5-8.9-3-12.8-1zm-146.1 15.7c-5.7 3.2-5.7 2.9-5.8 43.7-.1 20.6.3 38.7.8 40.1 1.7 4.8 5.4 7.4 10.9 7.4 4.2 0 5.3-.5 8.1-3.3l3.3-3.2v-38.9c0-42.3-.1-42.8-5.7-45.7-3.3-1.7-8.5-1.8-11.6-.1zm-111.3 38.4c-3.1 1.3-6.5 7.3-9.3 16.5-3.1 10.5 5.4 19.3 14.9 15.3 4.3-1.8 5.8-4 9-12.7 3.1-8.7 2.9-13.2-.8-16.5-4.7-4.4-8.1-5-13.8-2.6zm225.5-.6c-5.1 1.5-7.9 5.3-7.8 10.8 0 5.4 3.7 15.4 6.7 18.9 2.3 2.4 7.9 4.4 10.5 3.5 9-2.8 11.3-9.3 7.1-20.2-3.3-8.9-4.9-11.2-8.4-12.7-3.8-1.6-3.8-1.6-8.1-.3zm-170.1 15.4c-4.2 1.8-5.9 4.7-7.3 12.5-1.7 9.2-1.5 12.5.9 15.8 4.2 6 12.4 6.6 17.3 1.4 3.2-3.4 3.9-5.7 5.4-17.5.5-4 .2-5.3-1.7-8.2-3.6-5.2-8.7-6.6-14.6-4zm113 .1c-3.2 1.6-6.3 6.6-6.3 10.2 0 4.3 3.1 16.4 4.7 18.7 6.1 8.4 20.4 3.3 20.4-7.2 0-4.2-1.5-12.5-2.9-16.3-2.3-6-9.8-8.5-15.9-5.4z"/></svg>